<svg fill="none" height="100%" width="100%" viewBox="0 0 500 500" xmlns:xlink="http://www.w3.org/1999/xlink" xmlns="http://www.w3.org/2000/svg"><defs><clipPath id="i0"><rect height="500" width="500" y="0" x="0" /></clipPath><linearGradient id="i1" gradientUnits="userSpaceOnUse" spreadMethod="pad" x2="-124.487" y2="123.487" x1="123" y1="-124"><stop offset="0%" stop-color="#833ab4" /><stop offset="50%" stop-color="#00d667" /><stop offset="100%" stop-color="#00b25b" /></linearGradient><g id="i2"><g transform="matrix(1,0,0,1,250,250)" visibility="hidden" id="i3"><animate repeatCount="indefinite" begin="0s" calcMode="discrete" dur="1.1s" values="hidden; visible; visible" keyTimes="0; 0.212; 1" attributeName="visibility" /><g id="i4"><path fill="url(#i1)" d="M175,-0.001C175,96.649,96.65,175,0,175C-96.649,175,-175,96.649,-175,-0.001C-175,-96.65,-96.649,-175,0,-175C96.65,-175,175,-96.65,175,-0.001Z" /></g></g></g><linearGradient id="i5" gradientUnits="userSpaceOnUse" spreadMethod="pad" x2="-124.487" y2="123.487" x1="123" y1="-124"><stop offset="0%" stop-color="#833ab4" /><stop offset="50%" stop-color="#00d667" /><stop offset="100%" stop-color="#00b25b" /></linearGradient><g id="i6"><g transform="matrix(1,0,0,1,250,250)" visibility="hidden" id="i3"><animate repeatCount="indefinite" begin="0s" calcMode="discrete" dur="1.1s" values="hidden; visible; visible" keyTimes="0; 0.121; 1" attributeName="visibility" /><g id="i4"><path fill="url(#i5)" d="M175,-0.001C175,96.649,96.65,175,0,175C-96.649,175,-175,96.649,-175,-0.001C-175,-96.65,-96.649,-175,0,-175C96.65,-175,175,-96.65,175,-0.001Z" /></g></g></g><linearGradient id="i7" gradientUnits="userSpaceOnUse" spreadMethod="pad" x2="-124.487" y2="123.487" x1="123" y1="-124"><stop offset="0%" stop-color="#833ab4" /><stop offset="50%" stop-color="#00d667" /><stop offset="100%" stop-color="#00b25b" /></linearGradient><g id="i8"><g transform="matrix(1,0,0,1,250,250)" visibility="hidden" id="i3"><animate repeatCount="indefinite" begin="0s" calcMode="discrete" dur="1.1s" values="hidden; visible; visible" keyTimes="0; 0.03; 1" attributeName="visibility" /><g id="i4"><path fill="url(#i7)" d="M175,-0.001C175,96.649,96.65,175,0,175C-96.649,175,-175,96.649,-175,-0.001C-175,-96.65,-96.649,-175,0,-175C96.65,-175,175,-96.65,175,-0.001Z" /></g></g></g><linearGradient id="i9" gradientUnits="userSpaceOnUse" spreadMethod="pad" x2="-124.487" y2="123.487" x1="123" y1="-124"><stop offset="0%" stop-color="#833ab4" /><stop offset="50%" stop-color="#00d667" /><stop offset="100%" stop-color="#00b25b" /></linearGradient><g id="i10"><g transform="matrix(1,0,0,1,250,250)" id="i3"><g id="i4"><path fill="url(#i9)" d="M175,-0.001C175,96.649,96.65,175,0,175C-96.649,175,-175,96.649,-175,-0.001C-175,-96.65,-96.649,-175,0,-175C96.65,-175,175,-96.65,175,-0.001Z" /></g></g></g><g id="i11"><g transform="matrix(1,0,0,1,0,0)" id="i12"><g clip-path="url(#i0)"><g transform="matrix(1,0,0,1,250,250)"><g><path fill="url(#i9)" d="M175,-0.001C175,96.649,96.65,175,0,175C-96.649,175,-175,96.649,-175,-0.001C-175,-96.65,-96.649,-175,0,-175C96.65,-175,175,-96.65,175,-0.001Z" /></g></g></g></g></g><g id="i13"><g transform="matrix(1,0,0,1,250,250)" id="i14"><g id="i15"><path fill="#ffffff" d="M-94.55,99.03C-94.55,99.03,-79.958,44.59,-79.958,44.59C-88.219,29.685,-92.568,12.984,-92.568,-3.969C-92.568,-59.394,-47.474,-104.488,7.951,-104.488C63.377,-104.488,108.47,-59.394,108.47,-3.969C108.47,51.457,63.377,96.551,7.951,96.551C-8.688,96.551,-25.122,92.349,-39.83,84.371C-39.83,84.371,-94.55,99.03,-94.55,99.03ZM-37.109,63.97C-37.109,63.97,-33.663,66.025,-33.663,66.025C-21.012,73.563,-6.621,77.55,7.951,77.55C52.9,77.55,89.47,40.982,89.47,-3.969C89.47,-48.92,52.9,-85.488,7.951,-85.488C-36.996,-85.488,-73.567,-48.92,-73.567,-3.969C-73.567,10.874,-69.444,25.487,-61.645,38.296C-61.645,38.296,-59.531,41.767,-59.531,41.767C-59.531,41.767,-67.676,72.162,-67.676,72.162C-67.676,72.162,-37.109,63.97,-37.109,63.97Z" /></g><g id="i16"><path fill="#ffffff" d="M45.344,10.01C41.206,7.535,35.824,4.773,30.949,6.767C27.21,8.297,24.822,14.15,22.4,17.139C21.156,18.673,19.672,18.912,17.763,18.144C3.726,12.553,-7.03,3.182,-14.775,-9.729C-16.087,-11.736,-15.853,-13.317,-14.272,-15.178C-11.931,-17.932,-8.993,-21.061,-8.36,-24.775C-7.727,-28.487,-9.469,-32.827,-11.003,-36.133C-12.965,-40.358,-15.157,-46.382,-19.388,-48.772C-23.28,-50.969,-28.403,-49.739,-31.868,-46.917C-37.85,-42.046,-40.736,-34.413,-40.649,-26.848C-40.625,-24.698,-40.361,-22.553,-39.86,-20.479C-38.652,-15.488,-36.346,-10.83,-33.75,-6.399C-31.793,-3.059,-29.665,0.182,-27.371,3.3C-19.863,13.499,-10.523,22.362,0.292,28.987C5.696,32.296,11.517,35.198,17.544,37.19C24.303,39.423,30.325,41.748,37.625,40.362C45.267,38.911,52.801,34.181,55.835,26.817C56.733,24.636,57.182,22.208,56.679,19.905C55.64,15.144,49.196,12.313,45.344,10.01Z" /></g></g></g><linearGradient id="i17" gradientUnits="userSpaceOnUse" spreadMethod="pad" x2="123.486" y2="123.486" x1="-124" y1="-124"><stop offset="0%" stop-color="#833ab4" /><stop offset="60.1%" stop-color="#2047c6" /><stop offset="100%" stop-color="#2b189c" /></linearGradient><filter id="i18"><feColorMatrix values="0 0 0 0 1 0 0 0 0 1 0 0 0 0 1 0 0 0 1 0" type="matrix" /></filter><mask height="20000" width="20000" y="-10000" x="-10000" maskContentUnits="userSpaceOnUse" maskUnits="userSpaceOnUse" style="mask-type: alpha" mask-type="alpha" id="i19"><g transform="matrix(1,0,0,1,0,0)"><g filter="url(#i18)" transform="matrix(1.01,0,0,1.01,250,250)"><g id="i4"><path fill="url(#i17)" d="M175,0C175,-96.649,96.65,-175,0,-175C-96.65,-175,-175,-96.649,-175,0C-175,87.348,-111.006,159.746,-27.344,172.873C-27.344,172.873,-17.5,175.123,-0.5,175.123C17,175.123,27.344,172.873,27.344,172.873C111.006,159.746,175,87.348,175,0Z" /></g></g></g></mask><g id="i20"><g transform="matrix(1,0,0,1,0,0)" id="i21"><g clip-path="url(#i0)"><g transform="matrix(1,0,0,1,0,0)"><g clip-path="url(#i0)"><g transform="matrix(1,0,0,1,250,250)"><g><path fill="url(#i9)" d="M175,-0.001C175,96.649,96.65,175,0,175C-96.649,175,-175,96.649,-175,-0.001C-175,-96.65,-96.649,-175,0,-175C96.65,-175,175,-96.65,175,-0.001Z" /></g></g></g></g></g></g><g mask="url(#i19)" transform="matrix(1,0,0,1,0,0)" id="i22"><g clip-path="url(#i0)"><g transform="matrix(1,0,0,1,250,250)"><g><path fill="#ffffff" d="M-94.55,99.03C-94.55,99.03,-79.958,44.59,-79.958,44.59C-88.219,29.685,-92.568,12.984,-92.568,-3.969C-92.568,-59.394,-47.474,-104.488,7.951,-104.488C63.377,-104.488,108.47,-59.394,108.47,-3.969C108.47,51.457,63.377,96.551,7.951,96.551C-8.688,96.551,-25.122,92.349,-39.83,84.371C-39.83,84.371,-94.55,99.03,-94.55,99.03ZM-37.109,63.97C-37.109,63.97,-33.663,66.025,-33.663,66.025C-21.012,73.563,-6.621,77.55,7.951,77.55C52.9,77.55,89.47,40.982,89.47,-3.969C89.47,-48.92,52.9,-85.488,7.951,-85.488C-36.996,-85.488,-73.567,-48.92,-73.567,-3.969C-73.567,10.874,-69.444,25.487,-61.645,38.296C-61.645,38.296,-59.531,41.767,-59.531,41.767C-59.531,41.767,-67.676,72.162,-67.676,72.162C-67.676,72.162,-37.109,63.97,-37.109,63.97Z" /></g><g><path fill="#ffffff" d="M45.344,10.01C41.206,7.535,35.824,4.773,30.949,6.767C27.21,8.297,24.822,14.15,22.4,17.139C21.156,18.673,19.672,18.912,17.763,18.144C3.726,12.553,-7.03,3.182,-14.775,-9.729C-16.087,-11.736,-15.853,-13.317,-14.272,-15.178C-11.931,-17.932,-8.993,-21.061,-8.36,-24.775C-7.727,-28.487,-9.469,-32.827,-11.003,-36.133C-12.965,-40.358,-15.157,-46.382,-19.388,-48.772C-23.28,-50.969,-28.403,-49.739,-31.868,-46.917C-37.85,-42.046,-40.736,-34.413,-40.649,-26.848C-40.625,-24.698,-40.361,-22.553,-39.86,-20.479C-38.652,-15.488,-36.346,-10.83,-33.75,-6.399C-31.793,-3.059,-29.665,0.182,-27.371,3.3C-19.863,13.499,-10.523,22.362,0.292,28.987C5.696,32.296,11.517,35.198,17.544,37.19C24.303,39.423,30.325,41.748,37.625,40.362C45.267,38.911,52.801,34.181,55.835,26.817C56.733,24.636,57.182,22.208,56.679,19.905C55.64,15.144,49.196,12.313,45.344,10.01Z" /></g></g></g></g><g display="none" transform="matrix(1.01,0,0,1.01,250,250)" id="i23"><g id="i4"><path fill="url(#i17)" d="M175,0C175,-96.649,96.65,-175,0,-175C-96.65,-175,-175,-96.649,-175,0C-175,87.348,-111.006,159.746,-27.344,172.873C-27.344,172.873,-17.5,175.123,-0.5,175.123C17,175.123,27.344,172.873,27.344,172.873C111.006,159.746,175,87.348,175,0Z" /></g></g></g></defs><g visibility="hidden" id="i24"><animate repeatCount="indefinite" begin="0s" calcMode="discrete" dur="1.1s" values="hidden; visible; visible" keyTimes="0; 0.212; 1" attributeName="visibility" /><animate repeatCount="indefinite" attributeName="opacity" dur="1.1s" begin="0s" fill="freeze" values="1; 1; 0; 0" keyTimes="0; 0.454545; 0.939394; 1" keySplines="0 0 1 1; 0.333 0 0.667 1; 0 0 1 1" calcMode="spline" /><g transform="translate(250,250)"><g transform="scale(0,0)"><animateTransform repeatCount="indefinite" type="scale" attributeName="transform" dur="1.1s" begin="0s" calcMode="spline" values="0 0; 0 0; 1.3 1.3; 1.3 1.3" keyTimes="0; 0.212121; 0.696969; 1" keySplines="0 0 1 1; 0.333 0 0.667 1; 0 0 1 1" fill="freeze" /><g transform="translate(-250,-250)"><g clip-path="url(#i0)"><g transform="matrix(1,0,0,1,250,250)" visibility="hidden"><animate repeatCount="indefinite" begin="0s" calcMode="discrete" dur="1.1s" values="hidden; visible; visible" keyTimes="0; 0.212; 1" attributeName="visibility" /><g><path fill="url(#i1)" d="M175,-0.001C175,96.649,96.65,175,0,175C-96.649,175,-175,96.649,-175,-0.001C-175,-96.65,-96.649,-175,0,-175C96.65,-175,175,-96.65,175,-0.001Z" /></g></g></g></g></g></g></g><g visibility="hidden" id="i25"><animate repeatCount="indefinite" begin="0s" calcMode="discrete" dur="1.1s" values="hidden; visible; visible" keyTimes="0; 0.121; 1" attributeName="visibility" /><animate repeatCount="indefinite" attributeName="opacity" dur="1.1s" begin="0s" fill="freeze" values="1; 1; 0; 0" keyTimes="0; 0.363636; 0.848485; 1" keySplines="0 0 1 1; 0.333 0 0.667 1; 0 0 1 1" calcMode="spline" /><g transform="translate(250,250)"><g transform="scale(0,0)"><animateTransform repeatCount="indefinite" type="scale" attributeName="transform" dur="1.1s" begin="0s" calcMode="spline" values="0 0; 0 0; 1.2 1.2; 1.2 1.2" keyTimes="0; 0.121212; 0.60606; 1" keySplines="0 0 1 1; 0.333 0 0.667 1; 0 0 1 1" fill="freeze" /><g transform="translate(-250,-250)"><g clip-path="url(#i0)"><g transform="matrix(1,0,0,1,250,250)" visibility="hidden"><animate repeatCount="indefinite" begin="0s" calcMode="discrete" dur="1.1s" values="hidden; visible; visible" keyTimes="0; 0.121; 1" attributeName="visibility" /><g><path fill="url(#i5)" d="M175,-0.001C175,96.649,96.65,175,0,175C-96.649,175,-175,96.649,-175,-0.001C-175,-96.65,-96.649,-175,0,-175C96.65,-175,175,-96.65,175,-0.001Z" /></g></g></g></g></g></g></g><g visibility="hidden" id="i26"><animate repeatCount="indefinite" begin="0s" calcMode="discrete" dur="1.1s" values="hidden; visible; visible" keyTimes="0; 0.03; 1" attributeName="visibility" /><animate repeatCount="indefinite" attributeName="opacity" dur="1.1s" begin="0s" fill="freeze" values="1; 1; 0; 0" keyTimes="0; 0.272727; 0.757576; 1" keySplines="0 0 1 1; 0.333 0 0.667 1; 0 0 1 1" calcMode="spline" /><g transform="translate(250,250)"><g transform="scale(0,0)"><animateTransform repeatCount="indefinite" type="scale" attributeName="transform" dur="1.1s" begin="0s" calcMode="spline" values="0 0; 0 0; 1.15 1.15; 1.15 1.15" keyTimes="0; 0.030303; 0.515151; 1" keySplines="0 0 1 1; 0.333 0 0.667 1; 0 0 1 1" fill="freeze" /><g transform="translate(-250,-250)"><g clip-path="url(#i0)"><g transform="matrix(1,0,0,1,250,250)" visibility="hidden"><animate repeatCount="indefinite" begin="0s" calcMode="discrete" dur="1.1s" values="hidden; visible; visible" keyTimes="0; 0.03; 1" attributeName="visibility" /><g><path fill="url(#i7)" d="M175,-0.001C175,96.649,96.65,175,0,175C-96.649,175,-175,96.649,-175,-0.001C-175,-96.65,-96.649,-175,0,-175C96.65,-175,175,-96.65,175,-0.001Z" /></g></g></g></g></g></g></g><g id="i27"><g transform="translate(250,250)"><g transform="scale(0.978,0.978)"><animateTransform repeatCount="indefinite" type="scale" attributeName="transform" dur="1.1s" begin="0s" calcMode="spline" values="0.978 0.978; 0.978 0.978; 1.05 1.05; 1.05 1.05" keyTimes="0; 0.030303; 0.515151; 1" keySplines="0 0 1 1; 0.333 0 0.667 1; 0 0 1 1" fill="freeze" /><g transform="translate(-250,-250)"><g clip-path="url(#i0)"><g transform="matrix(1,0,0,1,0,0)"><g clip-path="url(#i0)"><g transform="matrix(1,0,0,1,0,0)"><g clip-path="url(#i0)"><g transform="matrix(1,0,0,1,250,250)"><g><path fill="url(#i9)" d="M175,-0.001C175,96.649,96.65,175,0,175C-96.649,175,-175,96.649,-175,-0.001C-175,-96.65,-96.649,-175,0,-175C96.65,-175,175,-96.65,175,-0.001Z" /></g></g></g></g></g></g><g mask="url(#i19)" transform="matrix(1,0,0,1,0,0)"><g clip-path="url(#i0)"><g transform="matrix(1,0,0,1,250,250)"><g><path fill="#ffffff" d="M-94.55,99.03C-94.55,99.03,-79.958,44.59,-79.958,44.59C-88.219,29.685,-92.568,12.984,-92.568,-3.969C-92.568,-59.394,-47.474,-104.488,7.951,-104.488C63.377,-104.488,108.47,-59.394,108.47,-3.969C108.47,51.457,63.377,96.551,7.951,96.551C-8.688,96.551,-25.122,92.349,-39.83,84.371C-39.83,84.371,-94.55,99.03,-94.55,99.03ZM-37.109,63.97C-37.109,63.97,-33.663,66.025,-33.663,66.025C-21.012,73.563,-6.621,77.55,7.951,77.55C52.9,77.55,89.47,40.982,89.47,-3.969C89.47,-48.92,52.9,-85.488,7.951,-85.488C-36.996,-85.488,-73.567,-48.92,-73.567,-3.969C-73.567,10.874,-69.444,25.487,-61.645,38.296C-61.645,38.296,-59.531,41.767,-59.531,41.767C-59.531,41.767,-67.676,72.162,-67.676,72.162C-67.676,72.162,-37.109,63.97,-37.109,63.97Z" /></g><g><path fill="#ffffff" d="M45.344,10.01C41.206,7.535,35.824,4.773,30.949,6.767C27.21,8.297,24.822,14.15,22.4,17.139C21.156,18.673,19.672,18.912,17.763,18.144C3.726,12.553,-7.03,3.182,-14.775,-9.729C-16.087,-11.736,-15.853,-13.317,-14.272,-15.178C-11.931,-17.932,-8.993,-21.061,-8.36,-24.775C-7.727,-28.487,-9.469,-32.827,-11.003,-36.133C-12.965,-40.358,-15.157,-46.382,-19.388,-48.772C-23.28,-50.969,-28.403,-49.739,-31.868,-46.917C-37.85,-42.046,-40.736,-34.413,-40.649,-26.848C-40.625,-24.698,-40.361,-22.553,-39.86,-20.479C-38.652,-15.488,-36.346,-10.83,-33.75,-6.399C-31.793,-3.059,-29.665,0.182,-27.371,3.3C-19.863,13.499,-10.523,22.362,0.292,28.987C5.696,32.296,11.517,35.198,17.544,37.19C24.303,39.423,30.325,41.748,37.625,40.362C45.267,38.911,52.801,34.181,55.835,26.817C56.733,24.636,57.182,22.208,56.679,19.905C55.64,15.144,49.196,12.313,45.344,10.01Z" /></g></g></g></g><g display="none" transform="matrix(1.01,0,0,1.01,250,250)"><g><path fill="url(#i17)" d="M175,0C175,-96.649,96.65,-175,0,-175C-96.65,-175,-175,-96.649,-175,0C-175,87.348,-111.006,159.746,-27.344,172.873C-27.344,172.873,-17.5,175.123,-0.5,175.123C17,175.123,27.344,172.873,27.344,172.873C111.006,159.746,175,87.348,175,0Z" /></g></g></g></g></g></g></g></svg>